<svg xmlns="http://www.w3.org/2000/svg" version="1.1" xmlnsXlink="http://www.w3.org/1999/xlink" xmlns:svgjs="http://svgjs.dev/svgjs" width="128" height="128" viewBox="0 0 128 128"><g transform="matrix(0.8046875,0,0,0.8046875,12.760752631578946,26.24967728627753)"><svg viewBox="0 0 95 70" data-background-color="#010536" preserveAspectRatio="xMidYMid meet" height="94" width="128" xmlns="http://www.w3.org/2000/svg" xmlnsXlink="http://www.w3.org/1999/xlink"><g id="tight-bounds" transform="matrix(1,0,0,1,-0.24049999999999727,-0.06477055206018179)"><svg viewBox="0 0 95.481 70.12954110412036" height="70.12954110412036" width="95.481"><g><svg viewBox="0 0 95.481 70.12954110412036" height="70.12954110412036" width="95.481"><g><svg viewBox="0 0 95.481 70.12954110412036" height="70.12954110412036" width="95.481"><g id="textblocktransform"><svg viewBox="0 0 95.481 70.12954110412036" height="70.12954110412036" width="95.481" id="textblock"><g><svg viewBox="0 0 95.481 70.12954110412036" height="70.12954110412036" width="95.481"><g><svg viewBox="0 0 95.481 70.12954110412036" height="70.12954110412036" width="95.481"><g><svg xmlns="http://www.w3.org/2000/svg" xmlnsXlink="http://www.w3.org/1999/xlink" version="1.1" x="0" y="0" viewBox="0.8457413476916671 15.346873866211904 98.03147817393236 72.00283384229813" enable-background="new 0 0 100 100" xml:space="preserve" height="70.12954110412036" width="95.481" className="icon-icon-0" data-fill-palette-color="accent" id="icon-0"><g fill="#ffff00" data-fill-palette-color="accent"><path d="M51.177 46H39.5c-2.798 0-5.068 2.841-5.105 7.047l-5.112 5.079L28.552 59h7.375c0.921 1 2.181 1 3.572 1h11.677c2.821 0 5.109-2.745 5.109-7C56.285 48.745 53.998 46 51.177 46zM39.066 53.859c-0.749 0-1.356-0.607-1.356-1.356 0-0.749 0.607-1.356 1.356-1.356 0.749 0 1.356 0.607 1.356 1.356C40.422 53.251 39.815 53.859 39.066 53.859zM45.303 53.859c-0.749 0-1.356-0.607-1.356-1.356 0-0.749 0.607-1.356 1.356-1.356 0.749 0 1.356 0.607 1.356 1.356C46.659 53.251 46.052 53.859 45.303 53.859zM51.54 53.859c-0.749 0-1.356-0.607-1.356-1.356 0-0.749 0.607-1.356 1.356-1.356 0.749 0 1.356 0.607 1.356 1.356C52.896 53.251 52.289 53.859 51.54 53.859z" fill="#000000" data-fill-palette-color="accent"></path><path d="M64.911 75.794l-5.112-5.411C59.761 66.176 57.492 63 54.693 63H43.016c-2.822 0-5.109 3.245-5.109 7.5 0 4.255 2.287 7.5 5.109 7.5h11.677c1.391 0 2.651 0 3.572-1h7.375L64.911 75.794zM42.653 71.53c-0.749 0-1.356-0.607-1.356-1.356 0-0.749 0.607-1.356 1.356-1.356 0.749 0 1.356 0.607 1.356 1.356C44.009 70.923 43.402 71.53 42.653 71.53zM48.89 71.53c-0.749 0-1.356-0.607-1.356-1.356 0-0.749 0.607-1.356 1.356-1.356 0.749 0 1.356 0.607 1.356 1.356C50.246 70.923 49.639 71.53 48.89 71.53zM55.127 71.53c-0.749 0-1.356-0.607-1.356-1.356 0-0.749 0.607-1.356 1.356-1.356 0.749 0 1.356 0.607 1.356 1.356C56.482 70.923 55.875 71.53 55.127 71.53z" fill="#000000" data-fill-palette-color="accent"></path><path d="M81.895 38.148c-19.035-0.793-17.449 25.38-17.449 25.38C68.482 80.224 76.3 87.863 81.102 87.323c14.277-1.607 17.449-23.001 17.449-23.001S102.636 39.013 81.895 38.148zM80.309 80.978l-5.552-7.138c0 0 4.759 4.759 11.104 0C92.206 69.08 80.309 80.978 80.309 80.978z" fill="#000000" data-fill-palette-color="accent"></path><path d="M1.162 40.748c0 0 3.077 20.748 16.923 22.307 4.657 0.524 12.239-6.885 16.153-23.076 0 0 1.538-25.384-16.923-24.615C-2.799 16.202 1.162 40.748 1.162 40.748zM13.469 49.979c6.154 4.615 10.769 0 10.769 0l-5.385 6.923C18.854 56.902 7.316 45.364 13.469 49.979z" fill="#000000" data-fill-palette-color="accent"></path></g></svg></g></svg></g></svg></g></svg></g></svg></g></svg></g><defs></defs></svg><rect width="95.481" height="70.12954110412036" fill="none" stroke="none" visibility="hidden"></rect></g></svg></g></svg>